<svg width="15" height="14" viewBox="0 0 15 14" fill="none" xmlns="http://www.w3.org/2000/svg">
<path d="M29.5 7.00004C29.5 18.8742 19.8741 28.5001 8 28.5001C-3.87412 28.5001 -13.5 18.8742 -13.5 7.00004C-13.5 -4.87411 -3.87412 -14.5 8 -14.5C19.8741 -14.5 29.5 -4.87411 29.5 7.00004Z" stroke="#262626" stroke-opacity="0.05"/>
<path d="M2.59986 7.71004C2.50613 7.61708 2.43174 7.50648 2.38097 7.38462C2.3302 7.26276 2.30406 7.13205 2.30406 7.00004C2.30406 6.86803 2.3302 6.73732 2.38097 6.61546C2.43174 6.49361 2.50613 6.383 2.59986 6.29004L7.18986 1.71003C7.28359 1.61707 7.35798 1.50647 7.40875 1.38461C7.45952 1.26275 7.48566 1.13204 7.48566 1.00003C7.48566 0.868019 7.45952 0.737313 7.40875 0.615454C7.35798 0.493594 7.28359 0.382993 7.18986 0.29003C7.0025 0.103779 6.74905 -0.000762939 6.48486 -0.000762939C6.22067 -0.000762939 5.96722 0.103779 5.77986 0.29003L1.18986 4.88004C0.628058 5.44254 0.3125 6.20504 0.3125 7.00004C0.3125 7.79505 0.628058 8.55754 1.18986 9.12005L5.77986 13.7101C5.96612 13.8948 6.21752 13.9989 6.47986 14.0001C6.61147 14.0008 6.74193 13.9756 6.86377 13.9258C6.9856 13.8761 7.09642 13.8027 7.18986 13.7101C7.28359 13.6171 7.35798 13.5065 7.40875 13.3846C7.45952 13.2628 7.48566 13.1321 7.48566 13.0001C7.48566 12.868 7.45952 12.7373 7.40875 12.6155C7.35798 12.4936 7.28359 12.383 7.18986 12.2901L2.59986 7.71004Z" fill="#262626" fill-opacity="0.5"/>
<path d="M9.59986 7.71004C9.50613 7.61708 9.43174 7.50648 9.38097 7.38462C9.3302 7.26276 9.30406 7.13205 9.30406 7.00004C9.30406 6.86803 9.3302 6.73732 9.38097 6.61546C9.43174 6.49361 9.50613 6.383 9.59986 6.29004L14.1899 1.71003C14.2836 1.61707 14.358 1.50647 14.4088 1.38461C14.4595 1.26275 14.4857 1.13204 14.4857 1.00003C14.4857 0.868019 14.4595 0.737313 14.4088 0.615454C14.358 0.493594 14.2836 0.382993 14.1899 0.29003C14.0025 0.103779 13.749 -0.000762939 13.4849 -0.000762939C13.2207 -0.000762939 12.9672 0.103779 12.7799 0.29003L8.18986 4.88004C7.62806 5.44254 7.3125 6.20504 7.3125 7.00004C7.3125 7.79505 7.62806 8.55754 8.18986 9.12005L12.7799 13.7101C12.9661 13.8948 13.2175 13.9989 13.4799 14.0001C13.6115 14.0008 13.7419 13.9756 13.8638 13.9258C13.9856 13.8761 14.0964 13.8027 14.1899 13.7101C14.2836 13.6171 14.358 13.5065 14.4088 13.3846C14.4595 13.2628 14.4857 13.1321 14.4857 13.0001C14.4857 12.868 14.4595 12.7373 14.4088 12.6155C14.358 12.4936 14.2836 12.383 14.1899 12.2901L9.59986 7.71004Z" fill="#262626" fill-opacity="0.5"/>
</svg>
