<svg width="15" height="14" viewBox="0 0 15 14" fill="none" xmlns="http://www.w3.org/2000/svg">
<path d="M28.5 7.00007C28.5 18.8742 18.8741 28.5001 7 28.5001C-4.87412 28.5001 -14.5 18.8742 -14.5 7.00007C-14.5 -4.87408 -4.87412 -14.5 7 -14.5C18.8741 -14.5 28.5 -4.87408 28.5 7.00007Z" stroke="#262626" stroke-opacity="0.2"/>
<path d="M12.3992 7.71004C12.4929 7.61708 12.5673 7.50648 12.6181 7.38462C12.6688 7.26276 12.695 7.13205 12.695 7.00004C12.695 6.86803 12.6688 6.73732 12.6181 6.61546C12.5673 6.49361 12.4929 6.383 12.3992 6.29004L7.80916 1.71003C7.71543 1.61707 7.64104 1.50647 7.59027 1.38461C7.5395 1.26275 7.51336 1.13204 7.51336 1.00003C7.51336 0.868019 7.5395 0.737313 7.59027 0.615454C7.64104 0.493594 7.71543 0.382993 7.80916 0.29003C7.99653 0.103779 8.24998 -0.000762939 8.51416 -0.000762939C8.77835 -0.000762939 9.0318 0.103779 9.21916 0.29003L13.8092 4.88004C14.371 5.44254 14.6865 6.20504 14.6865 7.00004C14.6865 7.79505 14.371 8.55754 13.8092 9.12005L9.21916 13.7101C9.0329 13.8948 8.7815 13.999 8.51916 14.0001C8.38756 14.0008 8.25709 13.9756 8.13526 13.9258C8.01342 13.8761 7.9026 13.8027 7.80916 13.7101C7.71543 13.6171 7.64104 13.5065 7.59027 13.3846C7.5395 13.2628 7.51336 13.1321 7.51336 13.0001C7.51336 12.868 7.5395 12.7373 7.59027 12.6155C7.64104 12.4936 7.71543 12.383 7.80916 12.2901L12.3992 7.71004Z" fill="#262626"/>
<path d="M5.39916 7.71004C5.49289 7.61708 5.56729 7.50648 5.61806 7.38462C5.66882 7.26276 5.69496 7.13205 5.69496 7.00004C5.69496 6.86803 5.66882 6.73732 5.61806 6.61546C5.56729 6.49361 5.49289 6.383 5.39916 6.29004L0.809163 1.71003C0.715435 1.61707 0.64104 1.50647 0.590271 1.38461C0.539503 1.26275 0.513365 1.13204 0.513365 1.00003C0.513365 0.868019 0.539503 0.737313 0.590271 0.615454C0.64104 0.493594 0.715435 0.382993 0.809163 0.29003C0.996526 0.103779 1.24998 -0.000762939 1.51416 -0.000762939C1.77835 -0.000762939 2.0318 0.103779 2.21916 0.29003L6.80916 4.88004C7.37097 5.44254 7.68652 6.20504 7.68652 7.00004C7.68652 7.79505 7.37097 8.55754 6.80916 9.12005L2.21916 13.7101C2.0329 13.8948 1.7815 13.999 1.51916 14.0001C1.38756 14.0008 1.25709 13.9756 1.13526 13.9258C1.01342 13.8761 0.902603 13.8027 0.809163 13.7101C0.715435 13.6171 0.64104 13.5065 0.590271 13.3846C0.539503 13.2628 0.513365 13.1321 0.513365 13.0001C0.513365 12.868 0.539503 12.7373 0.590271 12.6155C0.64104 12.4936 0.715435 12.383 0.809163 12.2901L5.39916 7.71004Z" fill="#262626"/>
</svg>
