<svg width="34" height="32" viewBox="0 0 34 32" fill="none" xmlns="http://www.w3.org/2000/svg">
<path d="M12.1875 0.875C10.7162 0.875 9.43475 1.711 8.62075 2.85225C7.80675 3.9935 7.375 5.4675 7.375 7.0625C7.375 8.6575 7.80675 10.1329 8.62075 11.2741C9.43475 12.4154 10.7162 13.25 12.1875 13.25C13.6588 13.25 14.9402 12.414 15.7542 11.2728C16.5683 10.1315 17 8.6575 17 7.0625C17 5.4675 16.5683 3.99213 15.7542 2.85087C14.9402 1.70962 13.6588 0.875 12.1875 0.875ZM17 7.0625C17 8.6575 17.4317 10.1329 18.2458 11.2741C19.0597 12.4154 20.3426 13.25 21.8125 13.25C23.2838 13.25 24.5653 12.414 25.3792 11.2728C26.1933 10.1315 26.625 8.6575 26.625 7.0625C26.625 5.4675 26.1933 3.99213 25.3792 2.85087C24.5653 1.70962 23.2838 0.875 21.8125 0.875C20.3412 0.875 19.0597 1.711 18.2458 2.85225C17.4317 3.9935 17 5.4675 17 7.0625ZM12.1875 3.625C12.6165 3.625 13.0895 3.8395 13.5213 4.44175C13.9475 5.04262 14.25 5.99963 14.25 7.0625C14.25 8.12538 13.9475 9.08375 13.5213 9.68325C13.0895 10.2855 12.6165 10.5 12.1875 10.5C11.7585 10.5 11.2855 10.2855 10.8537 9.68325C10.4275 9.08238 10.125 8.12538 10.125 7.0625C10.125 5.99963 10.4275 5.04125 10.8537 4.44175C11.2855 3.8395 11.7585 3.625 12.1875 3.625ZM21.8125 3.625C22.2415 3.625 22.7145 3.8395 23.1462 4.44175C23.5725 5.04262 23.875 5.99963 23.875 7.0625C23.875 8.12538 23.5725 9.08375 23.1462 9.68325C22.7145 10.2855 22.2415 10.5 21.8125 10.5C21.3835 10.5 20.9105 10.2855 20.4788 9.68325C20.0525 9.08238 19.75 8.12538 19.75 7.0625C19.75 5.99963 20.0525 5.04125 20.4788 4.44175C20.9105 3.8395 21.3835 3.625 21.8125 3.625ZM5.3125 10.5C3.84125 10.5 2.55975 11.336 1.74575 12.4773C0.93175 13.6185 0.5 15.0925 0.5 16.6875C0.5 18.2825 0.93175 19.7579 1.74575 20.8991C2.55975 22.0404 3.84125 22.875 5.3125 22.875C6.78375 22.875 8.06525 22.039 8.87925 20.8978C9.69325 19.7565 10.125 18.2825 10.125 16.6875C10.125 15.0925 9.69325 13.6171 8.87925 12.4759C8.06525 11.3346 6.78375 10.5 5.3125 10.5ZM28.6875 10.5C27.2162 10.5 25.9347 11.336 25.1208 12.4773C24.3067 13.6185 23.875 15.0925 23.875 16.6875C23.875 18.2825 24.3067 19.7579 25.1208 20.8991C25.9347 22.0404 27.2162 22.875 28.6875 22.875C30.1588 22.875 31.4403 22.039 32.2542 20.8978C33.0682 19.7565 33.5 18.2825 33.5 16.6875C33.5 15.0925 33.0682 13.6171 32.2542 12.4759C31.4403 11.3346 30.1588 10.5 28.6875 10.5ZM5.3125 13.25C5.7415 13.25 6.2145 13.4645 6.64625 14.0668C7.0725 14.6676 7.375 15.6246 7.375 16.6875C7.375 17.7504 7.0725 18.7088 6.64625 19.3083C6.2145 19.9105 5.7415 20.125 5.3125 20.125C4.8835 20.125 4.4105 19.9105 3.97875 19.3083C3.5525 18.7088 3.25 17.7504 3.25 16.6875C3.25 15.6246 3.5525 14.6663 3.97875 14.0668C4.4105 13.4645 4.8835 13.25 5.3125 13.25ZM28.6875 13.25C29.1165 13.25 29.5895 13.4645 30.0212 14.0668C30.4475 14.6676 30.75 15.6246 30.75 16.6875C30.75 17.7504 30.4475 18.7088 30.0212 19.3083C29.5895 19.9105 29.1165 20.125 28.6875 20.125C28.2585 20.125 27.7855 19.9105 27.3538 19.3083C26.9275 18.7074 26.625 17.7504 26.625 16.6875C26.625 15.6246 26.9275 14.6663 27.3538 14.0668C27.7855 13.4645 28.2585 13.25 28.6875 13.25ZM17 16C15.1671 16 13.8884 17.1894 13.26 18.2344C12.6357 19.2794 12.2507 20.1484 11.885 20.5114C11.6746 20.7273 10.3478 21.2264 8.9645 21.9318C8.27288 22.2851 7.57575 22.7568 6.98862 23.4786C6.39737 24.2005 5.99863 25.1974 5.99863 26.3153C5.99863 28.9553 8.17112 31.1278 10.8111 31.1278C12.0019 31.1278 13.2449 30.7428 14.4618 30.399C15.6841 30.047 17 29.75 17 29.75C17 29.75 18.3159 30.047 19.5355 30.3963C20.7537 30.74 21.9967 31.125 23.1875 31.125C25.8275 31.125 28 28.9525 28 26.3125C28 25.2208 27.5971 24.2225 27.01 23.5213C26.4256 22.8159 25.7216 22.38 25.0355 22.0156C23.6605 21.2869 22.3089 20.7094 22.1136 20.5114C21.7836 20.1855 21.4124 19.2876 20.7799 18.2371C20.1488 17.1825 18.8425 16 17 16ZM17 18.75C17.9075 18.75 18.0079 18.97 18.4163 19.652C18.8288 20.3326 19.1368 21.489 20.135 22.4886C21.2694 23.6161 22.7021 23.8636 23.7458 24.4191C24.2682 24.6969 24.667 24.9925 24.9062 25.2785C25.1441 25.5631 25.25 25.823 25.25 26.3098C25.25 27.4648 24.3425 28.3723 23.1875 28.3723C22.7887 28.3723 21.5045 28.0698 20.3083 27.726C19.112 27.3864 18.122 26.9973 17 26.9973C15.878 26.9973 14.888 27.3864 13.6917 27.726C12.4955 28.0698 11.2113 28.3723 10.8125 28.3723C9.6575 28.3723 8.75 27.4648 8.75 26.3098C8.75 25.7556 8.8655 25.471 9.09375 25.1905C9.322 24.9114 9.74275 24.635 10.2542 24.3751C11.2773 23.8526 12.7017 23.6464 13.8636 22.4845C14.8715 21.4711 15.174 20.2776 15.5824 19.6039C15.9839 18.9301 16.0801 18.7445 16.9986 18.7445L17 18.75Z" fill="#F6B83D"/>
</svg>
