<svg width="18" height="16" viewBox="0 0 18 16" fill="none" xmlns="http://www.w3.org/2000/svg">
<path d="M15.6306 2.4575C15.2475 2.07425 14.7927 1.77023 14.2921 1.56281C13.7915 1.35539 13.2549 1.24863 12.7131 1.24863C12.1712 1.24863 11.6347 1.35539 11.1341 1.56281C10.6335 1.77023 10.1786 2.07425 9.79558 2.4575L9.00058 3.2525L8.20558 2.4575C7.43181 1.68373 6.38235 1.24903 5.28808 1.24903C4.1938 1.24903 3.14435 1.68373 2.37058 2.4575C1.59681 3.23127 1.16211 4.28072 1.16211 5.375C1.16211 6.46927 1.59681 7.51873 2.37058 8.2925L3.16558 9.0875L9.00058 14.9225L14.8356 9.0875L15.6306 8.2925C16.0138 7.90943 16.3178 7.45461 16.5253 6.95401C16.7327 6.45342 16.8394 5.91686 16.8394 5.375C16.8394 4.83313 16.7327 4.29657 16.5253 3.79598C16.3178 3.29539 16.0138 2.84056 15.6306 2.4575Z" stroke="#F6B83D" stroke-width="1.5" stroke-linecap="round" stroke-linejoin="round"/>
</svg>
