<svg width="50" height="50" viewBox="0 0 50 50" fill="none" xmlns="http://www.w3.org/2000/svg">
<path d="M24.9999 31.25C18.3955 31.25 12.5223 34.4388 8.78317 39.3874C7.9784 40.4525 7.57602 40.985 7.58918 41.7048C7.59935 42.2608 7.94852 42.9623 8.38603 43.3056C8.95233 43.75 9.73708 43.75 11.3066 43.75H38.6931C40.2626 43.75 41.0474 43.75 41.6137 43.3056C42.0512 42.9623 42.4004 42.2608 42.4105 41.7048C42.4237 40.985 42.0213 40.4525 41.2165 39.3874C37.4774 34.4388 31.6042 31.25 24.9999 31.25Z" fill="#F6B83D" stroke="#F6B83D" stroke-width="2" stroke-linecap="round" stroke-linejoin="round"/>
<path d="M25 25C30.1777 25 34.375 20.8027 34.375 15.625C34.375 10.4473 30.1777 6.25 25 6.25C19.8223 6.25 15.625 10.4473 15.625 15.625C15.625 20.8027 19.8223 25 25 25Z" fill="#F6B83D" stroke="#F6B83D" stroke-width="2" stroke-linecap="round" stroke-linejoin="round"/>
</svg>
